<?xml version="1.0" encoding="UTF-8"?>
<svg id="uuid-bfa3d2cf-a7e1-461d-9b1f-e559c22316d4" data-name="Layer_2" xmlns="http://www.w3.org/2000/svg" width="522.48" height="116.36" xmlns:xlink="http://www.w3.org/1999/xlink" viewBox="0 0 522.48 116.36">
  <defs>
    <style>
      .uuid-be03afa6-2ecf-4e3d-851c-7342bfa9f7ad {
        fill: #456bb4;
      }

      .uuid-005a3d04-3e49-459b-a262-39de37e8305d {
        fill: none;
      }

      .uuid-48df8a1e-53df-431a-a686-0c818c6c6164 {
        fill: #6d6d6d;
      }

      .uuid-3e7a38b5-5694-48ae-b776-c895e48e9005 {
        fill: #3c3c3c;
      }

      .uuid-d4436b4b-f510-49d1-aa22-17cedee4979a {
        fill: #444;
      }

      .uuid-5a04cdbe-6fec-4d4f-9480-cf47248ef3a7 {
        fill: gray;
      }

      .uuid-714414b2-f7d9-45cb-9206-0dd312e4ed8c {
        fill: #474747;
      }

      .uuid-61a650ce-5a90-453f-80f3-df9fb75beba2 {
        fill: #8f8f8f;
      }

      .uuid-6f545956-a946-47ae-b9f0-1ecff5e891bf {
        fill: #828282;
      }

      .uuid-64cceeac-b5b7-4646-95ae-393960b8fcbc {
        fill: #ffd728;
      }

      .uuid-4a67f49d-a6e9-44e9-8a16-b67c026eb59f {
        fill: #939393;
      }

      .uuid-355d5215-61cd-4874-8840-cb5de7bfb5b1 {
        fill: #6c6c6c;
      }

      .uuid-e889f1a8-cfd1-4d9d-b505-1d3f77703d3c {
        fill: #adadad;
      }

      .uuid-e63afd98-5ce7-443d-a572-9d71e29c4f18 {
        fill: #7c7c7c;
      }

      .uuid-dfab01f4-62c7-4697-bfe2-6d5d80bc3177 {
        fill: #595959;
      }

      .uuid-2ba15822-e143-498f-b374-dad1d8f69db6 {
        fill: #393939;
      }

      .uuid-7f84d324-e05d-4185-bb36-7dcce8e5bde2 {
        fill: #545454;
      }

      .uuid-ebf23e66-da9d-4e35-a418-06054f438025 {
        fill: #010101;
      }

      .uuid-270d7fe2-1291-42b9-90a4-61d5a17b3b3e {
        fill: #a7a7a7;
      }

      .uuid-02110acf-a3ec-4c08-bf10-b554ac8da701 {
        fill: #727272;
      }

      .uuid-5926ce31-6633-4f32-8aae-5f7d8740ac0c {
        fill: #707070;
      }

      .uuid-6b73bbba-8415-4657-b6ec-5b2bedc58a69 {
        fill: #454545;
      }

      .uuid-ab7fc587-c08e-464c-9f60-d58500d02d35 {
        fill: #a2a2a2;
      }

      .uuid-27347b40-d4b4-4793-9fb5-fa1a63a017d7 {
        fill: #777;
      }

      .uuid-53db1d15-40a1-4adf-b870-6ade14c6b605 {
        fill: #767676;
      }

      .uuid-a8296734-8458-4b94-afdf-39c015b8c2cf {
        fill: #9a9a9a;
      }

      .uuid-f05d1c74-afc3-49de-8c36-f3a3a16421fb {
        fill: #363636;
      }

      .uuid-e5807259-43c6-4e3a-b56f-5578f2013494 {
        fill: #231f20;
      }

      .uuid-49e23e66-4166-45eb-b80a-e6e8bfb22419 {
        fill: #8e8e8e;
      }

      .uuid-e2eb82b1-da71-4426-b148-e5e6a509b9af {
        fill: #ababab;
      }

      .uuid-c2a426fe-f083-484e-9764-d026d53f74a1 {
        fill: url(#uuid-e162fbeb-c631-46ed-9c70-6e6bb8c0cb75);
      }

      .uuid-04b272ab-4979-4707-9b79-5c6f5b5c6c56 {
        fill: #909090;
      }

      .uuid-6ada0a5d-af4a-46c5-81ba-83dd6185e0e8 {
        fill: #7a7a7a;
      }

      .uuid-cc74753b-3147-4c04-89b8-20c73562dcbe {
        fill: #e6e6e6;
      }

      .uuid-3eca0065-3bde-4eaf-82b5-8ea366de6050 {
        fill: url(#uuid-387e9e2e-c6a4-4f0d-9374-12de3ba1b938);
      }

      .uuid-cd4ec4a9-0949-4608-8653-1b508a5bec6f {
        fill: #5b5b5b;
      }

      .uuid-94f8bbf4-9315-4782-9369-7eac819500fc {
        fill: #5f5f5f;
      }

      .uuid-00d6d3c3-906c-4e9a-99c9-325d48665a23 {
        fill: #aaa;
      }

      .uuid-8dd074b2-bcea-4d70-b693-645781c332d6 {
        fill: #8a8a8a;
      }

      .uuid-8a0bda4e-2f31-45e9-8e9f-3dea01256b15 {
        fill: #979797;
      }

      .uuid-8bc6c815-1919-4ba0-8119-c42a431c913a {
        fill: #8d8d8d;
      }

      .uuid-87a577f7-b625-4728-867c-c2b634f2d68c {
        fill: #a5a5a5;
      }

      .uuid-68a410d6-46f2-454c-ab1e-b84ec7cb7802 {
        fill: #919191;
      }

      .uuid-0eeaef2b-92b3-47be-a9d5-f0b52e9de8e0 {
        fill: #3b3b3b;
      }

      .uuid-fe5fff7b-fd41-4c62-92fb-685f7b091f65 {
        fill: #606060;
      }

      .uuid-a9b1a55a-ab74-42e1-9f17-313987afeaf8 {
        fill: #4f4f4f;
      }

      .uuid-0850471b-3001-4643-8b9d-92d48cef41d9 {
        fill: #3e3e3e;
      }

      .uuid-95e647b1-b544-4289-8f1f-9bbbd568487b {
        fill: #5c5c5c;
      }

      .uuid-025656f7-6091-4374-b117-a22877d62dfb {
        fill: #929292;
      }

      .uuid-84353a44-90a1-40f1-974e-ff97304f2185 {
        fill: #757575;
      }

      .uuid-43548530-a840-42ee-8b41-a8dc51b15722 {
        fill: #424242;
      }

      .uuid-051fab7d-e52d-4408-9551-8238cf41bc1d {
        fill: #9d9d9d;
      }

      .uuid-3a16d013-3f90-426e-89e3-e3fbde99f65f {
        fill: #3a3a3a;
      }

      .uuid-968af237-4d0b-4417-9623-017691d62de8 {
        fill: #525252;
      }

      .uuid-a4074c49-b3dd-4cc6-8927-7e27e13e1e0a {
        fill: #696969;
      }

      .uuid-b35e8298-5c78-443b-8a22-e7d0f6b198dc {
        fill: #9b9b9b;
      }

      .uuid-bd057222-eb18-44e0-8bc5-5f312cc80df0 {
        fill: url(#uuid-dc365105-1b8f-4233-bd86-b5d97e910cdd);
      }

      .uuid-bb9e5815-a4e6-4bad-9666-a0fb6b79ac53 {
        fill: #b1b1b1;
      }

      .uuid-1dd7f937-b77e-4d23-836e-2be930e68aed {
        fill: #373737;
      }

      .uuid-fd4d0f51-6b17-4cc1-b5fa-9fdeb93381de {
        fill: #5d5d5d;
      }

      .uuid-4891f180-c46b-4386-9926-17c6d31c0708 {
        fill: #4e4e4e;
      }

      .uuid-7e5e7f14-cd93-4a12-a935-4995cf5ee302 {
        fill: #656565;
      }

      .uuid-0da36f38-a110-4783-a220-578215da3ee1 {
        fill: #636363;
      }

      .uuid-d9b2e57e-83fc-419d-aad5-3d3f5cdcf269 {
        fill: #797979;
      }

      .uuid-145f4ac6-e40a-4bce-9cea-b89c24bbc376 {
        fill: #a6a6a6;
      }

      .uuid-b856f4f8-9b3b-4872-a74a-6bda01a456ad {
        fill: #a0a0a0;
      }

      .uuid-e3cb4ca0-0e66-488c-b464-11ec61b666ed {
        fill: #464646;
      }

      .uuid-6d3957e7-9c78-4f2a-b48d-5f6fb209a9ec {
        fill: #b3b3b3;
      }

      .uuid-bae830a2-17ec-4974-80cc-19b7aa264f41 {
        fill: #575757;
      }

      .uuid-cb948fa6-152a-4bd7-a7ec-c76ef3fb83e0 {
        fill: #b0b0b0;
      }

      .uuid-05a8cf90-f4e0-44f5-824b-54e293061b69 {
        fill: #898989;
      }

      .uuid-245b67d6-6042-448e-ac2e-06d31ce13040 {
        fill: #717171;
      }

      .uuid-ec59af70-4a2f-4b98-9200-6a827deb97e3 {
        fill: #505050;
      }

      .uuid-2adf607a-c6a9-442c-b167-2c326e064551 {
        fill: #3f3f3f;
      }

      .uuid-3b6fe4c7-9632-4e69-90f2-e7f35da47859 {
        fill: #969696;
      }

      .uuid-88246733-5676-4438-8503-5da51e3f763d {
        fill: #3d3d3d;
      }

      .uuid-fd12feec-8702-44d5-a471-fa038e9be7cb {
        fill: #7d7d7d;
      }

      .uuid-7b73fcfb-3fd8-4532-aeaf-0c27a3a3d64b {
        fill: #6f6f6f;
      }

      .uuid-f166a1b8-668f-4e24-9264-f152ba579971 {
        fill: #fff;
      }

      .uuid-6403c3f9-999c-44f8-817d-ff02fafbbe20 {
        fill: #868686;
      }

      .uuid-a4faa9f9-213c-46a7-9dd7-98791506669e {
        fill: #a3a3a3;
      }

      .uuid-5986beed-99bc-4b64-a261-92080726f10c {
        fill: #666;
      }

      .uuid-8195f16e-577f-46d9-862d-5ea7f38ab9bf {
        fill: #878787;
      }

      .uuid-80d103c8-ca8c-44fb-90c5-6407e7c2017a {
        fill: #353535;
      }

      .uuid-d7f4192f-b9ab-49d1-95b0-68ecab00117c {
        fill: #565656;
      }

      .uuid-0fa3a1bf-ce3b-4c6a-aa6a-b46756881f8c {
        fill: #646464;
      }

      .uuid-cc7b0cef-b7b0-4a9a-8cae-a55dfc56225a {
        fill: #515151;
      }

      .uuid-30d02929-2147-4fdb-a06a-8070f6976ac8 {
        fill: #959595;
      }

      .uuid-f9d2a540-9f5b-4f84-8d04-3e3ce5276419 {
        fill: #7e7e7e;
      }

      .uuid-040d5ec5-6a3c-42e7-a9d2-71f7cc670f20 {
        fill: #acacac;
      }

      .uuid-777a518b-2dbf-4964-b22c-2ae4605c6540 {
        fill: #848484;
      }

      .uuid-bbd50a09-01db-445b-8663-b300df16892e {
        fill: #858585;
      }

      .uuid-9bbb4b16-6f40-4c7a-a00d-c2554d7e8688 {
        fill: #8b8b8b;
      }

      .uuid-6cbc8687-6ac3-4812-b85e-810534c57084 {
        fill: #4a4a4a;
      }

      .uuid-7a393314-e3f8-46a6-aec5-f84c3c848109 {
        fill: #414141;
      }

      .uuid-cd891bfd-381c-480f-85bb-af45268b95f8 {
        fill: #747474;
      }

      .uuid-37873984-3810-4415-8149-2144a7d9ab7e {
        fill: #383838;
      }

      .uuid-ac40fa47-0503-4013-882b-e12f702e4b8d {
        fill: #5e5e5e;
      }

      .uuid-afe7d37e-4b02-4a1e-bf96-b21b01d7e168 {
        fill: #5a5a5a;
      }

      .uuid-deb5019c-8aa0-457c-a82d-56a9bf24ad12 {
        fill: #818181;
      }

      .uuid-792c39b6-cfcf-413a-ad4f-98235288d75f {
        fill: #6b6b6b;
      }

      .uuid-c2e99276-6ad7-4c68-a57a-e8d74e47bc14 {
        fill: #626262;
      }

      .uuid-5610beb0-9a06-49c2-abe1-ce482e061b3b {
        fill: #838383;
      }

      .uuid-2d3d99a5-ad39-4669-890d-d4da29581d6b {
        fill: #afafaf;
      }

      .uuid-6e2735dc-1353-48c9-a795-4724802fd059 {
        fill: #7f7f7f;
      }

      .uuid-61d9f8b9-0309-469c-a62b-c640f8800177 {
        fill: #585858;
      }

      .uuid-e16c7529-b7b4-4fe9-a1bd-98f80be30996 {
        fill: #8c8c8c;
      }

      .uuid-49796838-d847-4b8b-b8d9-99cdec22fd5e {
        fill: #949494;
      }

      .uuid-a1196de0-3baf-42f9-8537-f73aded9f8e0 {
        fill: #989898;
      }

      .uuid-cad84437-23c4-4e56-ab02-39e34cd49cbf {
        fill: #9e9e9e;
      }

      .uuid-b44aca19-7d39-4a18-aad4-e8abb78c0514 {
        fill: #676767;
      }

      .uuid-b7257878-0ca2-44f6-9323-1d41ca086be9 {
        fill: #494949;
      }

      .uuid-6a6a7626-ff7b-4c0a-b536-caeda31400f9 {
        fill: url(#uuid-67d4b08e-8782-495d-9f47-5d65855d25ac);
      }

      .uuid-5df34fce-3099-40c7-8581-d323e829e72e {
        fill: #6e6e6e;
      }

      .uuid-edbf2d58-6e85-4ff0-b587-633d748d49dd {
        fill: #6a6a6a;
      }

      .uuid-8fba9efe-dd57-406c-9c3b-f44209a8dc18 {
        fill: #434343;
      }

      .uuid-54cc3220-0f4c-4ae5-817d-39772eeb79a4 {
        fill: #737373;
      }

      .uuid-e812a6a4-f2f6-4c02-9931-b8e407773ee9 {
        fill: #888;
      }

      .uuid-d990c51d-702c-41ea-a626-1d0622708f33 {
        fill: #a4a4a4;
      }

      .uuid-92142799-da9c-4546-ad71-34a5875545c1 {
        fill: #a8a8a8;
      }

      .uuid-3db7aceb-7124-4151-81b6-55db014c16ae {
        fill: #a1a1a1;
      }

      .uuid-72dba910-6dbd-42bb-b995-eac1b5a2e06a {
        fill: #a9a9a9;
      }

      .uuid-323a17b3-e83d-4873-9f6a-6e30f40c1823 {
        fill: #484848;
      }

      .uuid-82be0761-add4-49e0-b92b-32322ddb7c7b {
        fill: #4b4b4b;
      }

      .uuid-e709b50b-3d38-4c39-9b0a-25c1cc4f6e9f {
        fill: #404040;
      }

      .uuid-d64041fd-4f72-4c27-ad37-a7b18abc9194 {
        fill: #333;
      }

      .uuid-a6a527d6-7551-4639-8238-096182df9414 {
        fill: #9c9c9c;
      }

      .uuid-ef4b0f53-62ff-4e3a-9df3-bd7c6f2a9896 {
        fill: #787878;
      }

      .uuid-9dfe2a4c-d740-4f5a-8ab0-ae860595b238 {
        fill: #535353;
      }

      .uuid-73c5d825-fd03-4538-b9c2-9e77f9816293 {
        fill: #aeaeae;
      }

      .uuid-2de18fa5-4fd3-4adc-adf5-75732a7d6cde {
        fill: #9f9f9f;
      }

      .uuid-49e90dfd-8da0-4a4a-a0b6-7370c5843ce2 {
        fill: #616161;
      }

      .uuid-25ec5a7d-3097-4933-ac92-0cf4d2feda6a {
        fill: #555;
      }

      .uuid-1cf2733c-27ef-45b6-8810-73d3f7407958 {
        fill: #b2b2b2;
      }

      .uuid-e98ec150-820b-41a7-b88a-1897cd4ebcc8 {
        fill: #4c4c4c;
      }

      .uuid-a2094545-f738-4369-aa6a-435779b02a09 {
        fill: #343434;
      }

      .uuid-77cd9f25-58e2-47a6-95cd-826c21b0407e {
        fill: #999;
      }

      .uuid-cb8b871a-ca4f-4f8b-9831-24afaba2b317 {
        fill: #4d4d4d;
      }

      .uuid-0da490c2-bfa8-43ca-9bc1-7424445bbd48 {
        fill: #686868;
      }

      .uuid-6a8f3c3d-bb69-4f5b-93ee-9a90d3f2905b {
        fill: #7b7b7b;
      }
    </style>
    <linearGradient id="uuid-e162fbeb-c631-46ed-9c70-6e6bb8c0cb75" x1="261.24" y1="8.53" x2="261.24" y2="2.85" gradientUnits="userSpaceOnUse">
      <stop offset=".8" stop-color="#000"/>
      <stop offset="1" stop-color="#262626"/>
    </linearGradient>
    <linearGradient id="uuid-67d4b08e-8782-495d-9f47-5d65855d25ac" x1="261.24" y1="109.33" x2="261.24" y2="8.56" gradientUnits="userSpaceOnUse">
      <stop offset=".1" stop-color="#4d4d4d"/>
      <stop offset=".29" stop-color="#101010"/>
      <stop offset=".33" stop-color="#000"/>
    </linearGradient>
    <linearGradient id="uuid-dc365105-1b8f-4233-bd86-b5d97e910cdd" x1="27.75" y1="105.93" x2="27.75" y2="10.43" gradientUnits="userSpaceOnUse">
      <stop offset=".14" stop-color="#456bb4"/>
      <stop offset="1" stop-color="#3560ac"/>
    </linearGradient>
    <linearGradient id="uuid-387e9e2e-c6a4-4f0d-9374-12de3ba1b938" x1="26.37" y1="109.33" x2="26.37" y2="8.56" gradientUnits="userSpaceOnUse">
      <stop offset="0" stop-color="#597cbe"/>
      <stop offset="1" stop-color="#456bb4"/>
    </linearGradient>
  </defs>
  <g id="uuid-22d737f7-49f8-4d8c-9174-ce90408ef348" data-name="Layer_1">
    <g>
      <path class="uuid-6d3957e7-9c78-4f2a-b48d-5f6fb209a9ec" d="M16.29,0h489.89c8.99,0,16.29,7.3,16.29,16.29v83.78c0,8.99-7.3,16.29-16.29,16.29H16.29c-8.99,0-16.29-7.3-16.29-16.29V16.29C0,7.3,7.3,0,16.29,0Z"/>
      <path class="uuid-1cf2733c-27ef-45b6-8810-73d3f7407958" d="M16.29.03h489.89c8.98,0,16.26,7.29,16.26,16.26v83.77c0,8.98-7.29,16.26-16.26,16.26H16.29C7.32,116.33.03,109.04.03,100.07V16.29C.03,7.32,7.32.03,16.29.03Z"/>
      <path class="uuid-bb9e5815-a4e6-4bad-9666-a0fb6b79ac53" d="M16.29.06h489.89c8.96,0,16.23,7.27,16.23,16.23v83.78c0,8.96-7.27,16.23-16.23,16.23H16.29C7.33,116.3.06,109.03.06,100.07V16.29C.06,7.33,7.33.06,16.29.06Z"/>
      <path class="uuid-cb948fa6-152a-4bd7-a7ec-c76ef3fb83e0" d="M16.29.09h489.89c8.94,0,16.2,7.26,16.2,16.2v83.77c0,8.94-7.26,16.21-16.21,16.21H16.29C7.35,116.27.09,109.01.09,100.07V16.29C.09,7.35,7.35.09,16.29.09Z"/>
      <path class="uuid-2d3d99a5-ad39-4669-890d-d4da29581d6b" d="M16.29.12h489.89c8.93,0,16.18,7.25,16.18,16.18v83.77c0,8.93-7.25,16.18-16.18,16.18H16.29C7.36,116.24.12,109,.12,100.07V16.29C.12,7.36,7.36.12,16.29.12Z"/>
      <path class="uuid-73c5d825-fd03-4538-b9c2-9e77f9816293" d="M16.29.15h489.89c8.91,0,16.15,7.24,16.15,16.15v83.77c0,8.91-7.24,16.15-16.15,16.15H16.29C7.38,116.21.15,108.98.15,100.07V16.29C.15,7.38,7.38.15,16.29.15Z"/>
      <path class="uuid-e889f1a8-cfd1-4d9d-b505-1d3f77703d3c" d="M16.29.18h489.89c8.9,0,16.12,7.22,16.12,16.12v83.77c0,8.9-7.22,16.12-16.12,16.12H16.29C7.4,116.19.18,108.96.18,100.07V16.29C.18,7.4,7.4.18,16.29.18Z"/>
      <path class="uuid-040d5ec5-6a3c-42e7-a9d2-71f7cc670f20" d="M16.29.2h489.89c8.88,0,16.09,7.21,16.09,16.09v83.77c0,8.88-7.21,16.09-16.09,16.09H16.29C7.41,116.16.2,108.95.2,100.07V16.29C.2,7.41,7.41.2,16.29.2Z"/>
      <path class="uuid-e2eb82b1-da71-4426-b148-e5e6a509b9af" d="M16.29.23h489.89c8.86,0,16.06,7.2,16.06,16.06v83.77c0,8.86-7.2,16.06-16.06,16.06H16.29C7.43,116.13.23,108.93.23,100.07V16.29C.23,7.43,7.43.23,16.29.23Z"/>
      <path class="uuid-00d6d3c3-906c-4e9a-99c9-325d48665a23" d="M16.29.26h489.89c8.85,0,16.03,7.18,16.03,16.03v83.77c0,8.85-7.18,16.03-16.03,16.03H16.29c-8.85,0-16.03-7.18-16.03-16.03V16.29C.26,7.45,7.45.26,16.29.26Z"/>
      <path class="uuid-72dba910-6dbd-42bb-b995-eac1b5a2e06a" d="M16.29.29h489.89c8.83,0,16,7.17,16,16v83.77c0,8.83-7.17,16-16,16H16.29c-8.83,0-16-7.17-16-16V16.29C.29,7.46,7.46.29,16.29.29Z"/>
      <path class="uuid-92142799-da9c-4546-ad71-34a5875545c1" d="M16.29.32h489.89c8.81,0,15.97,7.16,15.97,15.97v83.77c0,8.82-7.16,15.97-15.97,15.97H16.29c-8.81,0-15.97-7.16-15.97-15.97V16.29C.32,7.48,7.48.32,16.29.32Z"/>
      <path class="uuid-270d7fe2-1291-42b9-90a4-61d5a17b3b3e" d="M16.29.35h489.89c8.8,0,15.94,7.14,15.94,15.94v83.78c0,8.8-7.14,15.94-15.94,15.94H16.29c-8.8,0-15.94-7.14-15.94-15.94V16.29C.35,7.49,7.49.35,16.29.35Z"/>
      <path class="uuid-145f4ac6-e40a-4bce-9cea-b89c24bbc376" d="M16.29.38h489.89c8.78,0,15.91,7.13,15.91,15.91v83.77c0,8.78-7.13,15.91-15.91,15.91H16.29c-8.78,0-15.91-7.13-15.91-15.91V16.29C.38,7.51,7.51.38,16.29.38Z"/>
      <path class="uuid-87a577f7-b625-4728-867c-c2b634f2d68c" d="M16.29.41h489.89c8.77,0,15.88,7.12,15.88,15.88v83.77c0,8.77-7.12,15.89-15.89,15.89H16.29c-8.77,0-15.88-7.12-15.88-15.88V16.29C.41,7.53,7.53.41,16.29.41Z"/>
      <path class="uuid-d990c51d-702c-41ea-a626-1d0622708f33" d="M16.29.44h489.89c8.75,0,15.85,7.1,15.85,15.85v83.77c0,8.75-7.11,15.86-15.86,15.86H16.29c-8.75,0-15.85-7.1-15.85-15.85V16.29C.44,7.54,7.54.44,16.29.44Z"/>
      <path class="uuid-a4faa9f9-213c-46a7-9dd7-98791506669e" d="M16.29.47h489.89c8.73,0,15.83,7.09,15.83,15.83v83.77c0,8.74-7.09,15.83-15.83,15.83H16.29c-8.73,0-15.83-7.09-15.83-15.83V16.29C.47,7.56,7.56.47,16.29.47Z"/>
      <path class="uuid-ab7fc587-c08e-464c-9f60-d58500d02d35" d="M16.29.5h489.89c8.72,0,15.8,7.08,15.8,15.8v83.77c0,8.72-7.08,15.8-15.8,15.8H16.29c-8.72,0-15.8-7.08-15.8-15.8V16.29C.5,7.57,7.57.5,16.29.5Z"/>
      <path class="uuid-3db7aceb-7124-4151-81b6-55db014c16ae" d="M16.29.53h489.89c8.7,0,15.77,7.07,15.77,15.77v83.77c0,8.7-7.07,15.77-15.77,15.77H16.29c-8.7,0-15.77-7.07-15.77-15.77V16.29C.53,7.59,7.59.53,16.29.53Z"/>
      <path class="uuid-b856f4f8-9b3b-4872-a74a-6bda01a456ad" d="M16.29.55h489.89c8.69,0,15.74,7.05,15.74,15.74v83.77c0,8.69-7.05,15.74-15.74,15.74H16.29c-8.69,0-15.74-7.05-15.74-15.74V16.29C.55,7.61,7.61.55,16.29.55Z"/>
      <path class="uuid-2de18fa5-4fd3-4adc-adf5-75732a7d6cde" d="M16.29.58h489.89c8.67,0,15.71,7.04,15.71,15.71v83.77c0,8.67-7.04,15.71-15.71,15.71H16.29c-8.67,0-15.71-7.04-15.71-15.71V16.29C.58,7.62,7.62.58,16.29.58Z"/>
      <rect class="uuid-cad84437-23c4-4e56-ab02-39e34cd49cbf" x=".61" y=".61" width="521.25" height="115.14" rx="15.68" ry="15.68"/>
      <path class="uuid-051fab7d-e52d-4408-9551-8238cf41bc1d" d="M16.29.64h489.89c8.64,0,15.65,7.01,15.65,15.65v83.77c0,8.64-7.01,15.65-15.65,15.65H16.29c-8.64,0-15.65-7.01-15.65-15.65V16.29C.64,7.65,7.65.64,16.29.64Z"/>
      <rect class="uuid-a6a527d6-7551-4639-8238-096182df9414" x=".67" y=".67" width="521.13" height="115.02" rx="15.62" ry="15.62"/>
      <path class="uuid-b35e8298-5c78-443b-8a22-e7d0f6b198dc" d="M16.29.7h489.89c8.61,0,15.59,6.99,15.59,15.59v83.77c0,8.61-6.99,15.59-15.59,15.59H16.29c-8.61,0-15.59-6.99-15.59-15.59V16.29C.7,7.69,7.69.7,16.29.7Z"/>
      <path class="uuid-a8296734-8458-4b94-afdf-39c015b8c2cf" d="M16.29.73h489.89c8.59,0,15.56,6.97,15.56,15.56v83.77c0,8.59-6.97,15.56-15.56,15.56H16.29c-8.59,0-15.56-6.97-15.56-15.56V16.29C.73,7.7,7.7.73,16.29.73Z"/>
      <rect class="uuid-77cd9f25-58e2-47a6-95cd-826c21b0407e" x=".76" y=".76" width="520.96" height="114.84" rx="15.53" ry="15.53"/>
      <path class="uuid-a1196de0-3baf-42f9-8537-f73aded9f8e0" d="M16.29.79h489.89c8.56,0,15.5,6.95,15.5,15.5v83.77c0,8.56-6.95,15.51-15.51,15.51H16.29c-8.56,0-15.5-6.95-15.5-15.5V16.29C.79,7.74,7.74.79,16.29.79Z"/>
      <path class="uuid-8a0bda4e-2f31-45e9-8e9f-3dea01256b15" d="M16.29.82h489.89c8.54,0,15.48,6.93,15.48,15.48v83.77c0,8.54-6.94,15.48-15.48,15.48H16.29c-8.54,0-15.48-6.93-15.48-15.48V16.29C.82,7.75,7.75.82,16.29.82Z"/>
      <path class="uuid-3b6fe4c7-9632-4e69-90f2-e7f35da47859" d="M16.29.85h489.89c8.53,0,15.45,6.92,15.45,15.45v83.77c0,8.53-6.92,15.45-15.45,15.45H16.29c-8.53,0-15.45-6.92-15.45-15.45V16.29C.85,7.77,7.77.85,16.29.85Z"/>
      <path class="uuid-30d02929-2147-4fdb-a06a-8070f6976ac8" d="M16.29.88h489.89c8.51,0,15.42,6.91,15.42,15.42v83.77c0,8.51-6.91,15.42-15.42,15.42H16.29c-8.51,0-15.42-6.91-15.42-15.42V16.29C.88,7.78,7.78.88,16.29.88Z"/>
      <path class="uuid-49796838-d847-4b8b-b8d9-99cdec22fd5e" d="M16.29.9h489.89c8.49,0,15.39,6.9,15.39,15.39v83.77c0,8.49-6.9,15.39-15.39,15.39H16.29c-8.49,0-15.39-6.9-15.39-15.39V16.29C.9,7.8,7.8.9,16.29.9Z"/>
      <path class="uuid-4a67f49d-a6e9-44e9-8a16-b67c026eb59f" d="M16.29.93h489.89c8.48,0,15.36,6.88,15.36,15.36v83.77c0,8.48-6.88,15.36-15.36,15.36H16.29c-8.48,0-15.36-6.88-15.36-15.36V16.29C.93,7.82,7.82.93,16.29.93Z"/>
      <path class="uuid-025656f7-6091-4374-b117-a22877d62dfb" d="M16.29.96h489.89c8.46,0,15.33,6.87,15.33,15.33v83.77c0,8.46-6.87,15.33-15.33,15.33H16.29c-8.46,0-15.33-6.87-15.33-15.33V16.29C.96,7.83,7.83.96,16.29.96Z"/>
      <path class="uuid-68a410d6-46f2-454c-ab1e-b84ec7cb7802" d="M16.29.99h489.89c8.44,0,15.3,6.86,15.3,15.3v83.77c0,8.45-6.86,15.3-15.3,15.3H16.29c-8.44,0-15.3-6.86-15.3-15.3V16.29C.99,7.85,7.85.99,16.29.99Z"/>
      <path class="uuid-04b272ab-4979-4707-9b79-5c6f5b5c6c56" d="M16.29,1.02h489.89c8.43,0,15.27,6.84,15.27,15.27v83.77c0,8.43-6.84,15.27-15.27,15.27H16.29c-8.43,0-15.27-6.84-15.27-15.27V16.29C1.02,7.86,7.86,1.02,16.29,1.02Z"/>
      <path class="uuid-61a650ce-5a90-453f-80f3-df9fb75beba2" d="M16.29,1.05h489.89c8.41,0,15.24,6.83,15.24,15.24v83.77c0,8.41-6.83,15.24-15.24,15.24H16.29c-8.41,0-15.24-6.83-15.24-15.24V16.29C1.05,7.88,7.88,1.05,16.29,1.05Z"/>
      <path class="uuid-49e23e66-4166-45eb-b80a-e6e8bfb22419" d="M16.29,1.08h489.89c8.4,0,15.21,6.82,15.21,15.21v83.77c0,8.4-6.82,15.21-15.21,15.21H16.29c-8.4,0-15.21-6.82-15.21-15.21V16.29C1.08,7.9,7.9,1.08,16.29,1.08Z"/>
      <path class="uuid-8bc6c815-1919-4ba0-8119-c42a431c913a" d="M16.29,1.11h489.89c8.38,0,15.18,6.8,15.18,15.18v83.77c0,8.38-6.8,15.19-15.19,15.19H16.29c-8.38,0-15.18-6.8-15.18-15.18V16.29C1.11,7.91,7.91,1.11,16.29,1.11Z"/>
      <path class="uuid-e16c7529-b7b4-4fe9-a1bd-98f80be30996" d="M16.29,1.14h489.89c8.36,0,15.15,6.79,15.15,15.15v83.77c0,8.37-6.79,15.16-15.16,15.16H16.29c-8.36,0-15.15-6.79-15.15-15.15V16.29C1.14,7.93,7.93,1.14,16.29,1.14Z"/>
      <path class="uuid-9bbb4b16-6f40-4c7a-a00d-c2554d7e8688" d="M16.29,1.17h489.89c8.35,0,15.13,6.78,15.13,15.13v83.77c0,8.35-6.78,15.13-15.13,15.13H16.29c-8.35,0-15.13-6.78-15.13-15.13V16.29C1.17,7.94,7.94,1.17,16.29,1.17Z"/>
      <path class="uuid-8dd074b2-bcea-4d70-b693-645781c332d6" d="M16.29,1.2h489.89c8.33,0,15.1,6.76,15.1,15.1v83.77c0,8.33-6.77,15.1-15.1,15.1H16.29c-8.33,0-15.1-6.76-15.1-15.1V16.29C1.2,7.96,7.96,1.2,16.29,1.2Z"/>
      <path class="uuid-05a8cf90-f4e0-44f5-824b-54e293061b69" d="M16.29,1.23h489.89c8.32,0,15.07,6.75,15.07,15.07v83.77c0,8.32-6.75,15.07-15.07,15.07H16.29c-8.32,0-15.07-6.75-15.07-15.07V16.29C1.23,7.98,7.98,1.23,16.29,1.23Z"/>
      <path class="uuid-e812a6a4-f2f6-4c02-9931-b8e407773ee9" d="M16.29,1.25h489.89c8.3,0,15.04,6.74,15.04,15.04v83.77c0,8.3-6.74,15.04-15.04,15.04H16.29c-8.3,0-15.04-6.74-15.04-15.04V16.29C1.25,7.99,7.99,1.25,16.29,1.25Z"/>
      <path class="uuid-8195f16e-577f-46d9-862d-5ea7f38ab9bf" d="M16.29,1.28h489.89c8.28,0,15.01,6.73,15.01,15.01v83.77c0,8.28-6.73,15.01-15.01,15.01H16.29c-8.28,0-15.01-6.73-15.01-15.01V16.29C1.28,8.01,8.01,1.28,16.29,1.28Z"/>
      <rect class="uuid-6403c3f9-999c-44f8-817d-ff02fafbbe20" x="1.31" y="1.31" width="519.85" height="113.74" rx="14.98" ry="14.98"/>
      <path class="uuid-bbd50a09-01db-445b-8663-b300df16892e" d="M16.29,1.34h489.89c8.25,0,14.95,6.7,14.95,14.95v83.77c0,8.25-6.7,14.95-14.95,14.95H16.29c-8.25,0-14.95-6.7-14.95-14.95V16.29C1.34,8.04,8.04,1.34,16.29,1.34Z"/>
      <path class="uuid-777a518b-2dbf-4964-b22c-2ae4605c6540" d="M16.29,1.37h489.89c8.24,0,14.92,6.69,14.92,14.92v83.77c0,8.24-6.69,14.92-14.92,14.92H16.29c-8.24,0-14.92-6.69-14.92-14.92V16.29C1.37,8.06,8.06,1.37,16.29,1.37Z"/>
      <path class="uuid-5610beb0-9a06-49c2-abe1-ce482e061b3b" d="M16.29,1.4h489.89c8.22,0,14.89,6.67,14.89,14.89v83.77c0,8.22-6.67,14.89-14.89,14.89H16.29c-8.22,0-14.89-6.67-14.89-14.89V16.29C1.4,8.07,8.07,1.4,16.29,1.4Z"/>
      <path class="uuid-6f545956-a946-47ae-b9f0-1ecff5e891bf" d="M16.29,1.43h489.89c8.2,0,14.86,6.66,14.86,14.86v83.77c0,8.2-6.66,14.86-14.86,14.86H16.29c-8.2,0-14.86-6.66-14.86-14.86V16.29C1.43,8.09,8.09,1.43,16.29,1.43Z"/>
      <path class="uuid-deb5019c-8aa0-457c-a82d-56a9bf24ad12" d="M16.29,1.46h489.89c8.19,0,14.83,6.65,14.83,14.83v83.77c0,8.19-6.65,14.84-14.84,14.84H16.29c-8.19,0-14.83-6.65-14.83-14.83V16.29C1.46,8.11,8.11,1.46,16.29,1.46Z"/>
      <path class="uuid-5a04cdbe-6fec-4d4f-9480-cf47248ef3a7" d="M16.29,1.49h489.89c8.17,0,14.8,6.63,14.8,14.8v83.77c0,8.17-6.63,14.81-14.81,14.81H16.29c-8.17,0-14.8-6.63-14.8-14.8V16.29C1.49,8.12,8.12,1.49,16.29,1.49Z"/>
      <path class="uuid-6e2735dc-1353-48c9-a795-4724802fd059" d="M16.29,1.52h489.89c8.15,0,14.78,6.62,14.78,14.78v83.77c0,8.16-6.62,14.78-14.78,14.78H16.29c-8.16,0-14.78-6.62-14.78-14.78V16.29C1.52,8.14,8.14,1.52,16.29,1.52Z"/>
      <path class="uuid-f9d2a540-9f5b-4f84-8d04-3e3ce5276419" d="M16.29,1.55h489.89c8.14,0,14.75,6.61,14.75,14.75v83.77c0,8.14-6.61,14.75-14.75,14.75H16.29c-8.14,0-14.75-6.61-14.75-14.75V16.29C1.55,8.15,8.15,1.55,16.29,1.55Z"/>
      <rect class="uuid-fd12feec-8702-44d5-a471-fa038e9be7cb" x="1.58" y="1.58" width="519.33" height="113.21" rx="14.72" ry="14.72"/>
      <path class="uuid-e63afd98-5ce7-443d-a572-9d71e29c4f18" d="M16.29,1.6h489.89c8.11,0,14.69,6.58,14.69,14.69v83.77c0,8.11-6.58,14.69-14.69,14.69H16.29c-8.11,0-14.69-6.58-14.69-14.69V16.29C1.6,8.19,8.19,1.6,16.29,1.6Z"/>
      <path class="uuid-6a8f3c3d-bb69-4f5b-93ee-9a90d3f2905b" d="M16.29,1.63h489.89c8.09,0,14.66,6.57,14.66,14.66v83.77c0,8.09-6.57,14.66-14.66,14.66H16.29c-8.09,0-14.66-6.57-14.66-14.66V16.29C1.63,8.2,8.2,1.63,16.29,1.63Z"/>
      <path class="uuid-6ada0a5d-af4a-46c5-81ba-83dd6185e0e8" d="M16.29,1.66h489.89c8.07,0,14.63,6.56,14.63,14.63v83.77c0,8.08-6.56,14.63-14.63,14.63H16.29c-8.07,0-14.63-6.56-14.63-14.63V16.29C1.66,8.22,8.22,1.66,16.29,1.66Z"/>
      <path class="uuid-d9b2e57e-83fc-419d-aad5-3d3f5cdcf269" d="M16.29,1.69h489.89c8.06,0,14.6,6.54,14.6,14.6v83.77c0,8.06-6.54,14.6-14.6,14.6H16.29c-8.06,0-14.6-6.54-14.6-14.6V16.29C1.69,8.23,8.23,1.69,16.29,1.69Z"/>
      <path class="uuid-ef4b0f53-62ff-4e3a-9df3-bd7c6f2a9896" d="M16.29,1.72h489.89c8.04,0,14.57,6.53,14.57,14.57v83.78c0,8.04-6.53,14.57-14.57,14.57H16.29c-8.04,0-14.57-6.53-14.57-14.57V16.29C1.72,8.25,8.25,1.72,16.29,1.72Z"/>
      <path class="uuid-27347b40-d4b4-4793-9fb5-fa1a63a017d7" d="M16.29,1.75h489.89c8.03,0,14.54,6.52,14.54,14.54v83.77c0,8.03-6.52,14.54-14.54,14.54H16.29c-8.03,0-14.54-6.52-14.54-14.54V16.29C1.75,8.27,8.27,1.75,16.29,1.75Z"/>
      <path class="uuid-53db1d15-40a1-4adf-b870-6ade14c6b605" d="M16.29,1.78h489.89c8.01,0,14.51,6.5,14.51,14.51v83.77c0,8.01-6.5,14.51-14.51,14.51H16.29c-8.01,0-14.51-6.5-14.51-14.51V16.29C1.78,8.28,8.28,1.78,16.29,1.78Z"/>
      <path class="uuid-84353a44-90a1-40f1-974e-ff97304f2185" d="M16.29,1.81h489.89c7.99,0,14.48,6.49,14.48,14.48v83.77c0,7.99-6.49,14.49-14.49,14.49H16.29c-7.99,0-14.48-6.49-14.48-14.48V16.29C1.81,8.3,8.3,1.81,16.29,1.81Z"/>
      <path class="uuid-cd891bfd-381c-480f-85bb-af45268b95f8" d="M16.29,1.84h489.89c7.98,0,14.45,6.48,14.45,14.45v83.77c0,7.98-6.48,14.46-14.46,14.46H16.29c-7.98,0-14.45-6.48-14.45-14.45V16.29C1.84,8.31,8.31,1.84,16.29,1.84Z"/>
      <path class="uuid-54cc3220-0f4c-4ae5-817d-39772eeb79a4" d="M16.29,1.87h489.89c7.96,0,14.43,6.46,14.43,14.43v83.77c0,7.96-6.46,14.43-14.43,14.43H16.29c-7.96,0-14.43-6.46-14.43-14.43V16.29C1.87,8.33,8.33,1.87,16.29,1.87Z"/>
      <path class="uuid-02110acf-a3ec-4c08-bf10-b554ac8da701" d="M16.29,1.9h489.89c7.95,0,14.4,6.45,14.4,14.4v83.77c0,7.95-6.45,14.4-14.4,14.4H16.29c-7.95,0-14.4-6.45-14.4-14.4V16.29C1.9,8.35,8.35,1.9,16.29,1.9Z"/>
      <path class="uuid-245b67d6-6042-448e-ac2e-06d31ce13040" d="M16.29,1.93h489.89c7.93,0,14.37,6.44,14.37,14.37v83.77c0,7.93-6.44,14.37-14.37,14.37H16.29c-7.93,0-14.37-6.44-14.37-14.37V16.29C1.93,8.36,8.36,1.93,16.29,1.93Z"/>
      <path class="uuid-5926ce31-6633-4f32-8aae-5f7d8740ac0c" d="M16.29,1.95h489.89c7.91,0,14.34,6.42,14.34,14.34v83.77c0,7.91-6.43,14.34-14.34,14.34H16.29c-7.91,0-14.34-6.42-14.34-14.34V16.29C1.95,8.38,8.38,1.95,16.29,1.95Z"/>
      <path class="uuid-7b73fcfb-3fd8-4532-aeaf-0c27a3a3d64b" d="M16.29,1.98h489.89c7.9,0,14.31,6.41,14.31,14.31v83.77c0,7.9-6.41,14.31-14.31,14.31H16.29c-7.9,0-14.31-6.41-14.31-14.31V16.29C1.98,8.4,8.4,1.98,16.29,1.98Z"/>
      <path class="uuid-5df34fce-3099-40c7-8581-d323e829e72e" d="M16.29,2.01h489.89c7.88,0,14.28,6.4,14.28,14.28v83.77c0,7.88-6.4,14.28-14.28,14.28H16.29c-7.88,0-14.28-6.4-14.28-14.28V16.29c0-7.88,6.4-14.28,14.28-14.28Z"/>
      <path class="uuid-48df8a1e-53df-431a-a686-0c818c6c6164" d="M16.29,2.04h489.89c7.87,0,14.25,6.39,14.25,14.25v83.77c0,7.87-6.39,14.25-14.25,14.25H16.29c-7.87,0-14.25-6.39-14.25-14.25V16.29c0-7.87,6.39-14.25,14.25-14.25Z"/>
      <path class="uuid-355d5215-61cd-4874-8840-cb5de7bfb5b1" d="M16.29,2.07h489.89c7.85,0,14.22,6.37,14.22,14.22v83.77c0,7.85-6.37,14.22-14.22,14.22H16.29c-7.85,0-14.22-6.37-14.22-14.22V16.29c0-7.85,6.37-14.22,14.22-14.22Z"/>
      <path class="uuid-792c39b6-cfcf-413a-ad4f-98235288d75f" d="M16.29,2.1h489.89c7.83,0,14.19,6.36,14.19,14.19v83.77c0,7.83-6.36,14.19-14.19,14.19H16.29c-7.83,0-14.19-6.36-14.19-14.19V16.29c0-7.83,6.36-14.19,14.19-14.19Z"/>
      <path class="uuid-edbf2d58-6e85-4ff0-b587-633d748d49dd" d="M16.29,2.13h489.89c7.82,0,14.16,6.35,14.16,14.16v83.77c0,7.82-6.35,14.16-14.16,14.16H16.29c-7.82,0-14.16-6.35-14.16-14.16V16.29c0-7.82,6.35-14.16,14.16-14.16Z"/>
      <path class="uuid-a4074c49-b3dd-4cc6-8927-7e27e13e1e0a" d="M16.29,2.16h489.89c7.8,0,14.13,6.33,14.13,14.13v83.77c0,7.8-6.33,14.14-14.14,14.14H16.29c-7.8,0-14.13-6.33-14.13-14.13V16.29c0-7.8,6.33-14.13,14.13-14.13Z"/>
      <path class="uuid-0da490c2-bfa8-43ca-9bc1-7424445bbd48" d="M16.29,2.19h489.89c7.78,0,14.1,6.32,14.1,14.1v83.77c0,7.79-6.32,14.11-14.11,14.11H16.29c-7.78,0-14.1-6.32-14.1-14.1V16.29c0-7.78,6.32-14.1,14.1-14.1Z"/>
      <path class="uuid-b44aca19-7d39-4a18-aad4-e8abb78c0514" d="M16.29,2.22h489.89c7.77,0,14.08,6.31,14.08,14.08v83.77c0,7.77-6.31,14.08-14.08,14.08H16.29c-7.77,0-14.08-6.31-14.08-14.08V16.29c0-7.77,6.31-14.08,14.08-14.08Z"/>
      <path class="uuid-5986beed-99bc-4b64-a261-92080726f10c" d="M16.29,2.25h489.89c7.75,0,14.05,6.29,14.05,14.05v83.77c0,7.75-6.29,14.05-14.05,14.05H16.29c-7.75,0-14.05-6.29-14.05-14.05V16.29c0-7.75,6.29-14.05,14.05-14.05Z"/>
      <path class="uuid-7e5e7f14-cd93-4a12-a935-4995cf5ee302" d="M16.29,2.28h489.89c7.74,0,14.02,6.28,14.02,14.02v83.77c0,7.74-6.28,14.02-14.02,14.02H16.29c-7.74,0-14.02-6.28-14.02-14.02V16.29c0-7.74,6.28-14.02,14.02-14.02Z"/>
      <path class="uuid-0fa3a1bf-ce3b-4c6a-aa6a-b46756881f8c" d="M16.29,2.3h489.89c7.72,0,13.99,6.27,13.99,13.99v83.77c0,7.72-6.27,13.99-13.99,13.99H16.29c-7.72,0-13.99-6.27-13.99-13.99V16.29c0-7.72,6.27-13.99,13.99-13.99Z"/>
      <path class="uuid-0da36f38-a110-4783-a220-578215da3ee1" d="M16.29,2.33h489.89c7.7,0,13.96,6.25,13.96,13.96v83.77c0,7.71-6.26,13.96-13.96,13.96H16.29c-7.7,0-13.96-6.25-13.96-13.96V16.29c0-7.7,6.25-13.96,13.96-13.96Z"/>
      <path class="uuid-c2e99276-6ad7-4c68-a57a-e8d74e47bc14" d="M16.29,2.36h489.89c7.69,0,13.93,6.24,13.93,13.93v83.77c0,7.69-6.24,13.93-13.93,13.93H16.29c-7.69,0-13.93-6.24-13.93-13.93V16.29c0-7.69,6.24-13.93,13.93-13.93Z"/>
      <path class="uuid-49e90dfd-8da0-4a4a-a0b6-7370c5843ce2" d="M16.29,2.39h489.89c7.67,0,13.9,6.23,13.9,13.9v83.77c0,7.67-6.23,13.9-13.9,13.9H16.29c-7.67,0-13.9-6.23-13.9-13.9V16.29c0-7.67,6.23-13.9,13.9-13.9Z"/>
      <path class="uuid-fe5fff7b-fd41-4c62-92fb-685f7b091f65" d="M16.29,2.42h489.89c7.66,0,13.87,6.22,13.87,13.87v83.77c0,7.66-6.22,13.87-13.87,13.87H16.29c-7.66,0-13.87-6.22-13.87-13.87V16.29c0-7.66,6.22-13.87,13.87-13.87Z"/>
      <path class="uuid-94f8bbf4-9315-4782-9369-7eac819500fc" d="M16.29,2.45h489.89c7.64,0,13.84,6.2,13.84,13.84v83.77c0,7.64-6.2,13.84-13.84,13.84H16.29c-7.64,0-13.84-6.2-13.84-13.84V16.29c0-7.64,6.2-13.84,13.84-13.84Z"/>
      <path class="uuid-ac40fa47-0503-4013-882b-e12f702e4b8d" d="M16.29,2.48h489.89c7.62,0,13.81,6.19,13.81,13.81v83.77c0,7.62-6.19,13.81-13.81,13.81H16.29c-7.62,0-13.81-6.19-13.81-13.81V16.29c0-7.62,6.19-13.81,13.81-13.81Z"/>
      <path class="uuid-fd4d0f51-6b17-4cc1-b5fa-9fdeb93381de" d="M16.29,2.51h489.89c7.61,0,13.78,6.18,13.78,13.78v83.77c0,7.61-6.18,13.79-13.79,13.79H16.29c-7.61,0-13.78-6.18-13.78-13.78V16.29c0-7.61,6.18-13.78,13.78-13.78Z"/>
      <path class="uuid-95e647b1-b544-4289-8f1f-9bbbd568487b" d="M16.29,2.54h489.89c7.59,0,13.75,6.16,13.75,13.75v83.77c0,7.59-6.16,13.76-13.76,13.76H16.29c-7.59,0-13.76-6.16-13.76-13.76V16.29c0-7.59,6.16-13.75,13.75-13.75Z"/>
      <path class="uuid-cd4ec4a9-0949-4608-8653-1b508a5bec6f" d="M16.29,2.57h489.89c7.58,0,13.73,6.15,13.73,13.73v83.77c0,7.58-6.15,13.73-13.73,13.73H16.29c-7.58,0-13.73-6.15-13.73-13.73V16.29c0-7.58,6.15-13.73,13.73-13.73Z"/>
      <path class="uuid-afe7d37e-4b02-4a1e-bf96-b21b01d7e168" d="M16.29,2.6h489.89c7.56,0,13.7,6.14,13.7,13.7v83.77c0,7.56-6.14,13.7-13.7,13.7H16.29c-7.56,0-13.7-6.14-13.7-13.7V16.29c0-7.56,6.14-13.7,13.7-13.7Z"/>
      <path class="uuid-dfab01f4-62c7-4697-bfe2-6d5d80bc3177" d="M16.29,2.63h489.89c7.54,0,13.67,6.12,13.67,13.67v83.77c0,7.54-6.12,13.67-13.67,13.67H16.29c-7.54,0-13.67-6.12-13.67-13.67V16.29c0-7.54,6.12-13.67,13.67-13.67Z"/>
      <path class="uuid-61d9f8b9-0309-469c-a62b-c640f8800177" d="M16.29,2.65h489.89c7.53,0,13.64,6.11,13.64,13.64v83.77c0,7.53-6.11,13.64-13.64,13.64H16.29c-7.53,0-13.64-6.11-13.64-13.64V16.29c0-7.53,6.11-13.64,13.64-13.64Z"/>
      <path class="uuid-bae830a2-17ec-4974-80cc-19b7aa264f41" d="M16.29,2.68h489.89c7.51,0,13.61,6.1,13.61,13.61v83.77c0,7.51-6.1,13.61-13.61,13.61H16.29c-7.51,0-13.61-6.1-13.61-13.61V16.29c0-7.51,6.1-13.61,13.61-13.61Z"/>
      <path class="uuid-d7f4192f-b9ab-49d1-95b0-68ecab00117c" d="M16.29,2.71h489.89c7.49,0,13.58,6.08,13.58,13.58v83.77c0,7.5-6.09,13.58-13.58,13.58H16.29c-7.49,0-13.58-6.08-13.58-13.58V16.29c0-7.49,6.08-13.58,13.58-13.58Z"/>
      <path class="uuid-25ec5a7d-3097-4933-ac92-0cf4d2feda6a" d="M16.29,2.74h489.89c7.48,0,13.55,6.07,13.55,13.55v83.77c0,7.48-6.07,13.55-13.55,13.55H16.29c-7.48,0-13.55-6.07-13.55-13.55V16.29c0-7.48,6.07-13.55,13.55-13.55Z"/>
      <path class="uuid-7f84d324-e05d-4185-bb36-7dcce8e5bde2" d="M16.29,2.77h489.89c7.46,0,13.52,6.06,13.52,13.52v83.77c0,7.46-6.06,13.52-13.52,13.52H16.29c-7.46,0-13.52-6.06-13.52-13.52V16.29c0-7.46,6.06-13.52,13.52-13.52Z"/>
      <path class="uuid-9dfe2a4c-d740-4f5a-8ab0-ae860595b238" d="M16.29,2.8h489.89c7.45,0,13.49,6.05,13.49,13.49v83.77c0,7.45-6.05,13.49-13.49,13.49H16.29c-7.45,0-13.49-6.05-13.49-13.49V16.29c0-7.45,6.05-13.49,13.49-13.49Z"/>
      <path class="uuid-968af237-4d0b-4417-9623-017691d62de8" d="M16.29,2.83h489.89c7.43,0,13.46,6.03,13.46,13.46v83.77c0,7.43-6.03,13.46-13.46,13.46H16.29c-7.43,0-13.46-6.03-13.46-13.46V16.29c0-7.43,6.03-13.46,13.46-13.46Z"/>
      <rect class="uuid-cc7b0cef-b7b0-4a9a-8cae-a55dfc56225a" x="2.86" y="2.86" width="516.76" height="110.64" rx="13.43" ry="13.43"/>
      <path class="uuid-ec59af70-4a2f-4b98-9200-6a827deb97e3" d="M16.29,2.89h489.89c7.4,0,13.4,6.01,13.4,13.4v83.77c0,7.4-6.01,13.41-13.41,13.41H16.29c-7.4,0-13.4-6.01-13.4-13.4V16.29c0-7.4,6.01-13.4,13.4-13.4Z"/>
      <path class="uuid-a9b1a55a-ab74-42e1-9f17-313987afeaf8" d="M16.29,2.92h489.89c7.38,0,13.38,5.99,13.38,13.38v83.77c0,7.38-5.99,13.38-13.38,13.38H16.29c-7.38,0-13.38-5.99-13.38-13.38V16.29c0-7.38,5.99-13.38,13.38-13.38Z"/>
      <path class="uuid-4891f180-c46b-4386-9926-17c6d31c0708" d="M16.29,2.95h489.89c7.37,0,13.35,5.98,13.35,13.35v83.77c0,7.37-5.98,13.35-13.35,13.35H16.29c-7.37,0-13.35-5.98-13.35-13.35V16.29c0-7.37,5.98-13.35,13.35-13.35Z"/>
      <path class="uuid-cb8b871a-ca4f-4f8b-9831-24afaba2b317" d="M16.29,2.98h489.89c7.35,0,13.32,5.97,13.32,13.32v83.77c0,7.35-5.97,13.32-13.32,13.32H16.29c-7.35,0-13.32-5.97-13.32-13.32V16.29c0-7.35,5.97-13.32,13.32-13.32Z"/>
      <path class="uuid-e98ec150-820b-41a7-b88a-1897cd4ebcc8" d="M16.29,3h489.89c7.33,0,13.29,5.95,13.29,13.29v83.77c0,7.33-5.95,13.29-13.29,13.29H16.29c-7.33,0-13.29-5.95-13.29-13.29V16.29c0-7.33,5.95-13.29,13.29-13.29Z"/>
      <path class="uuid-82be0761-add4-49e0-b92b-32322ddb7c7b" d="M16.29,3.03h489.89c7.32,0,13.26,5.94,13.26,13.26v83.77c0,7.32-5.94,13.26-13.26,13.26H16.29c-7.32,0-13.26-5.94-13.26-13.26V16.29c0-7.32,5.94-13.26,13.26-13.26Z"/>
      <path class="uuid-6cbc8687-6ac3-4812-b85e-810534c57084" d="M16.29,3.06h489.89c7.3,0,13.23,5.93,13.23,13.23v83.77c0,7.3-5.93,13.23-13.23,13.23H16.29c-7.3,0-13.23-5.93-13.23-13.23V16.29c0-7.3,5.93-13.23,13.23-13.23Z"/>
      <path class="uuid-b7257878-0ca2-44f6-9323-1d41ca086be9" d="M16.29,3.09h489.89c7.29,0,13.2,5.92,13.2,13.2v83.77c0,7.29-5.92,13.2-13.2,13.2H16.29c-7.29,0-13.2-5.92-13.2-13.2V16.29c0-7.29,5.92-13.2,13.2-13.2Z"/>
      <path class="uuid-323a17b3-e83d-4873-9f6a-6e30f40c1823" d="M16.29,3.12h489.89c7.27,0,13.17,5.9,13.17,13.17v83.77c0,7.27-5.9,13.17-13.17,13.17H16.29c-7.27,0-13.17-5.9-13.17-13.17V16.29c0-7.27,5.9-13.17,13.17-13.17Z"/>
      <path class="uuid-714414b2-f7d9-45cb-9206-0dd312e4ed8c" d="M16.29,3.15h489.89c7.25,0,13.14,5.89,13.14,13.14v83.77c0,7.25-5.89,13.14-13.14,13.14H16.29c-7.25,0-13.14-5.89-13.14-13.14V16.29c0-7.25,5.89-13.14,13.14-13.14Z"/>
      <path class="uuid-e3cb4ca0-0e66-488c-b464-11ec61b666ed" d="M16.29,3.18h489.89c7.24,0,13.11,5.88,13.11,13.11v83.77c0,7.24-5.88,13.11-13.11,13.11H16.29c-7.24,0-13.11-5.88-13.11-13.11V16.29c0-7.24,5.88-13.11,13.11-13.11Z"/>
      <path class="uuid-6b73bbba-8415-4657-b6ec-5b2bedc58a69" d="M16.29,3.21h489.89c7.22,0,13.08,5.86,13.08,13.08v83.77c0,7.22-5.86,13.09-13.09,13.09H16.29c-7.22,0-13.09-5.86-13.09-13.09V16.29c0-7.22,5.86-13.08,13.08-13.08Z"/>
      <path class="uuid-d4436b4b-f510-49d1-aa22-17cedee4979a" d="M16.29,3.24h489.89c7.21,0,13.05,5.85,13.05,13.05v83.77c0,7.21-5.85,13.06-13.06,13.06H16.29c-7.21,0-13.05-5.85-13.05-13.05V16.29c0-7.21,5.85-13.05,13.05-13.05Z"/>
      <path class="uuid-8fba9efe-dd57-406c-9c3b-f44209a8dc18" d="M16.29,3.27h489.89c7.19,0,13.03,5.84,13.03,13.03v83.77c0,7.19-5.84,13.03-13.03,13.03H16.29c-7.19,0-13.03-5.84-13.03-13.03V16.29c0-7.19,5.84-13.03,13.03-13.03Z"/>
      <path class="uuid-43548530-a840-42ee-8b41-a8dc51b15722" d="M16.29,3.3h489.89c7.17,0,13,5.82,13,13v83.77c0,7.17-5.82,13-13,13H16.29c-7.17,0-13-5.82-13-13V16.29c0-7.17,5.82-13,13-13Z"/>
      <path class="uuid-7a393314-e3f8-46a6-aec5-f84c3c848109" d="M16.29,3.33h489.89c7.16,0,12.97,5.81,12.97,12.97v83.77c0,7.16-5.81,12.97-12.97,12.97H16.29c-7.16,0-12.97-5.81-12.97-12.97V16.29c0-7.16,5.81-12.97,12.97-12.97Z"/>
      <path class="uuid-e709b50b-3d38-4c39-9b0a-25c1cc4f6e9f" d="M16.29,3.35h489.89c7.14,0,12.94,5.8,12.94,12.94v83.77c0,7.14-5.8,12.94-12.94,12.94H16.29c-7.14,0-12.94-5.8-12.94-12.94V16.29c0-7.14,5.8-12.94,12.94-12.94Z"/>
      <path class="uuid-2adf607a-c6a9-442c-b167-2c326e064551" d="M16.29,3.38h489.89c7.12,0,12.91,5.78,12.91,12.91v83.77c0,7.13-5.79,12.91-12.91,12.91H16.29c-7.13,0-12.91-5.79-12.91-12.91V16.29c0-7.12,5.78-12.91,12.91-12.91Z"/>
      <path class="uuid-0850471b-3001-4643-8b9d-92d48cef41d9" d="M16.29,3.41h489.89c7.11,0,12.88,5.77,12.88,12.88v83.77c0,7.11-5.77,12.88-12.88,12.88H16.29c-7.11,0-12.88-5.77-12.88-12.88V16.29c0-7.11,5.77-12.88,12.88-12.88Z"/>
      <path class="uuid-88246733-5676-4438-8503-5da51e3f763d" d="M16.29,3.44h489.89c7.09,0,12.85,5.76,12.85,12.85v83.77c0,7.09-5.76,12.85-12.85,12.85H16.29c-7.09,0-12.85-5.76-12.85-12.85V16.29c0-7.09,5.76-12.85,12.85-12.85Z"/>
      <path class="uuid-3e7a38b5-5694-48ae-b776-c895e48e9005" d="M16.29,3.47h489.89c7.08,0,12.82,5.75,12.82,12.82v83.78c0,7.08-5.75,12.82-12.82,12.82H16.29c-7.08,0-12.82-5.75-12.82-12.82V16.29c0-7.08,5.75-12.82,12.82-12.82Z"/>
      <path class="uuid-0eeaef2b-92b3-47be-a9d5-f0b52e9de8e0" d="M16.29,3.5h489.89c7.06,0,12.79,5.73,12.79,12.79v83.77c0,7.06-5.73,12.79-12.79,12.79H16.29c-7.06,0-12.79-5.73-12.79-12.79V16.29c0-7.06,5.73-12.79,12.79-12.79Z"/>
      <path class="uuid-3a16d013-3f90-426e-89e3-e3fbde99f65f" d="M16.29,3.53h489.89c7.04,0,12.76,5.72,12.76,12.76v83.77c0,7.05-5.72,12.76-12.76,12.76H16.29c-7.04,0-12.76-5.72-12.76-12.76V16.29c0-7.04,5.72-12.76,12.76-12.76Z"/>
      <path class="uuid-2ba15822-e143-498f-b374-dad1d8f69db6" d="M16.29,3.56h489.89c7.03,0,12.73,5.71,12.73,12.73v83.77c0,7.03-5.71,12.74-12.74,12.74H16.29c-7.03,0-12.73-5.71-12.73-12.73V16.29c0-7.03,5.71-12.73,12.73-12.73Z"/>
      <path class="uuid-37873984-3810-4415-8149-2144a7d9ab7e" d="M16.29,3.59h489.89c7.01,0,12.7,5.69,12.7,12.7v83.77c0,7.01-5.69,12.71-12.71,12.71H16.29c-7.01,0-12.7-5.69-12.7-12.7V16.29c0-7.01,5.69-12.7,12.7-12.7Z"/>
      <path class="uuid-1dd7f937-b77e-4d23-836e-2be930e68aed" d="M16.29,3.62h489.89c7,0,12.68,5.68,12.68,12.68v83.77c0,7-5.68,12.68-12.68,12.68H16.29c-7,0-12.68-5.68-12.68-12.68V16.29c0-7,5.68-12.68,12.68-12.68Z"/>
      <path class="uuid-f05d1c74-afc3-49de-8c36-f3a3a16421fb" d="M16.29,3.65h489.89c6.98,0,12.65,5.67,12.65,12.65v83.77c0,6.98-5.67,12.65-12.65,12.65H16.29c-6.98,0-12.65-5.67-12.65-12.65V16.29c0-6.98,5.67-12.65,12.65-12.65Z"/>
      <rect class="uuid-80d103c8-ca8c-44fb-90c5-6407e7c2017a" x="3.68" y="3.68" width="515.12" height="109.01" rx="12.62" ry="12.62"/>
      <path class="uuid-a2094545-f738-4369-aa6a-435779b02a09" d="M16.29,3.7h489.89c6.95,0,12.59,5.64,12.59,12.59v83.77c0,6.95-5.64,12.59-12.59,12.59H16.29c-6.95,0-12.59-5.64-12.59-12.59V16.29c0-6.95,5.64-12.59,12.59-12.59Z"/>
      <path class="uuid-d64041fd-4f72-4c27-ad37-a7b18abc9194" d="M16.29,3.73h489.89c6.93,0,12.56,5.63,12.56,12.56v83.77c0,6.93-5.63,12.56-12.56,12.56H16.29c-6.93,0-12.56-5.63-12.56-12.56V16.29c0-6.93,5.63-12.56,12.56-12.56Z"/>
    </g>
    <path d="M16.29,2.85h489.89c7.42,0,13.44,6.02,13.44,13.44v83.78c0,7.42-6.02,13.44-13.44,13.44H16.29c-7.42,0-13.44-6.02-13.44-13.44V16.29c0-7.42,6.02-13.44,13.44-13.44Z"/>
    <path class="uuid-c2a426fe-f083-484e-9764-d026d53f74a1" d="M15.05,4.39h492.37c3.81,0,7.26,1.59,9.72,4.14-2.44-3.43-6.44-5.67-10.96-5.67H16.29c-4.52,0-8.52,2.24-10.96,5.67,2.46-2.55,5.9-4.13,9.71-4.13Z"/>
    <path class="uuid-f166a1b8-668f-4e24-9264-f152ba579971" d="M16.29,8.56h489.89c4.27,0,7.73,3.46,7.73,7.73v83.78c0,4.27-3.46,7.73-7.73,7.73H16.29c-4.27,0-7.73-3.47-7.73-7.73V16.29c0-4.27,3.46-7.73,7.73-7.73Z"/>
    <path class="uuid-6a6a7626-ff7b-4c0a-b536-caeda31400f9" d="M507.03,8.56h-.85c4.27,0,7.73,3.46,7.73,7.73v83.78c0,4.27-3.46,7.73-7.73,7.73H16.29c-4.27,0-7.73-3.46-7.73-7.73V16.29c0-4.27,3.46-7.73,7.73-7.73h-.85c-4.29,0-7.76,3.51-7.76,7.85v85.07c0,4.34,3.47,7.85,7.76,7.85h491.59c4.29,0,7.76-3.52,7.76-7.85V16.41c0-4.34-3.48-7.85-7.76-7.85Z"/>
    <path class="uuid-cc74753b-3147-4c04-89b8-20c73562dcbe" d="M506.18,10.43H16.29c-3.23,0-5.86,2.63-5.86,5.86v83.78c0,3.23,2.63,5.87,5.86,5.87h489.89c3.23,0,5.87-2.63,5.87-5.87V16.29c0-3.23-2.63-5.86-5.87-5.86ZM511.18,100.07c0,2.75-2.24,4.99-5,4.99H16.29c-2.75,0-4.99-2.24-4.99-4.99V16.29c0-2.75,2.24-4.99,4.99-4.99h489.89c2.75,0,5,2.24,5,4.99v83.78Z"/>
    <path class="uuid-be03afa6-2ecf-4e3d-851c-7342bfa9f7ad" d="M45.07,8.56h-28.77c-4.27,0-7.73,3.46-7.73,7.73v83.78c0,4.27,3.46,7.73,7.73,7.73h28.77V8.56Z"/>
    <path class="uuid-bd057222-eb18-44e0-8bc5-5f312cc80df0" d="M16.29,105.93h28.77v-.87h-28.77c-2.75,0-4.99-2.24-4.99-4.99V16.29c0-2.75,2.24-4.99,4.99-4.99h28.77v-.87h-28.77c-3.23,0-5.86,2.63-5.86,5.86v83.78c0,3.23,2.63,5.87,5.86,5.87Z"/>
    <path class="uuid-3eca0065-3bde-4eaf-82b5-8ea366de6050" d="M7.68,16.41v85.07c0,4.34,3.47,7.85,7.76,7.85h29.62v-1.53h-28.77c-4.27,0-7.73-3.46-7.73-7.73V16.29c0-4.27,3.46-7.73,7.73-7.73h-.85c-4.29,0-7.76,3.51-7.76,7.85Z"/>
    <g>
      <path class="uuid-ebf23e66-da9d-4e35-a418-06054f438025" d="M15.74,41.09l-1.49-1.08-1.43,1.04.54-1.68-1.48-1.07h1.82l.54-1.7.57,1.7h1.8l-1.45,1.05.58,1.74ZM14.25,39.73l1.05.76-.41-1.23,1.02-.74h-1.26l-.4-1.2-.38,1.2h-1.28l1.04.75-.38,1.18,1-.73Z"/>
      <path class="uuid-ebf23e66-da9d-4e35-a418-06054f438025" d="M17.4,34.78l-1.49-1.08-1.43,1.04.54-1.68-1.48-1.07h1.82l.54-1.7.57,1.7h1.8l-1.45,1.05.58,1.74ZM15.91,33.42l1.05.76-.41-1.23,1.02-.74h-1.26l-.4-1.2-.38,1.2h-1.28l1.04.75-.38,1.18,1-.73Z"/>
      <path class="uuid-ebf23e66-da9d-4e35-a418-06054f438025" d="M21.99,30.25l-1.49-1.08-1.43,1.04.54-1.68-1.48-1.07h1.82l.54-1.7.57,1.7h1.8l-1.45,1.05.58,1.74ZM20.5,28.89l1.05.76-.41-1.23,1.02-.74h-1.26l-.4-1.2-.38,1.2h-1.28l1.04.75-.38,1.18,1-.73Z"/>
      <path class="uuid-ebf23e66-da9d-4e35-a418-06054f438025" d="M37.64,41.09l.58-1.74-1.45-1.05h1.8l.57-1.7.54,1.7h1.82l-1.48,1.07.54,1.68-1.43-1.04-1.49,1.08ZM37.47,38.53l1.02.74-.41,1.23,1.05-.76,1,.73-.38-1.18,1.04-.75h-1.28l-.38-1.2-.4,1.2h-1.26Z"/>
      <path class="uuid-ebf23e66-da9d-4e35-a418-06054f438025" d="M35.98,34.78l.58-1.74-1.45-1.05h1.8l.57-1.7.54,1.7h1.82l-1.48,1.07.54,1.68-1.43-1.04-1.49,1.08ZM35.81,32.22l1.02.74-.41,1.23,1.05-.76,1,.73-.38-1.18,1.04-.75h-1.28l-.38-1.2-.4,1.2h-1.26Z"/>
      <path class="uuid-ebf23e66-da9d-4e35-a418-06054f438025" d="M31.38,30.25l.58-1.74-1.45-1.05h1.8l.57-1.7.54,1.7h1.82l-1.48,1.07.54,1.68-1.43-1.04-1.49,1.08ZM31.22,27.69l1.02.74-.41,1.23,1.05-.76,1,.73-.38-1.18,1.04-.75h-1.28l-.38-1.2-.4,1.2h-1.26Z"/>
      <path class="uuid-ebf23e66-da9d-4e35-a418-06054f438025" d="M25.19,28.53l.58-1.74-1.45-1.05h1.8l.57-1.7.54,1.7h1.82l-1.48,1.07.54,1.68-1.43-1.04-1.49,1.08ZM25.02,25.97l1.02.74-.41,1.23,1.05-.76,1,.73-.38-1.18,1.04-.75h-1.28l-.38-1.2-.4,1.2h-1.26Z"/>
      <path class="uuid-ebf23e66-da9d-4e35-a418-06054f438025" d="M17.4,47.39l-1.49-1.08-1.43,1.04.54-1.68-1.48-1.07h1.82l.54-1.7.57,1.7h1.8l-1.45,1.05.58,1.74ZM15.91,46.04l1.05.76-.41-1.23,1.02-.74h-1.26l-.4-1.2-.38,1.2h-1.28l1.04.75-.38,1.18,1-.73Z"/>
      <path class="uuid-ebf23e66-da9d-4e35-a418-06054f438025" d="M21.99,51.93l-1.49-1.08-1.43,1.04.54-1.68-1.48-1.07h1.82l.54-1.7.57,1.7h1.8l-1.45,1.05.58,1.74ZM20.5,50.57l1.05.76-.41-1.23,1.02-.74h-1.26l-.4-1.2-.38,1.2h-1.28l1.04.75-.38,1.18,1-.73Z"/>
      <path class="uuid-ebf23e66-da9d-4e35-a418-06054f438025" d="M35.98,47.39l.58-1.74-1.45-1.05h1.8l.57-1.7.54,1.7h1.82l-1.48,1.07.54,1.68-1.43-1.04-1.49,1.08ZM35.81,44.83l1.02.74-.41,1.23,1.05-.76,1,.73-.38-1.18,1.04-.75h-1.28l-.38-1.2-.4,1.2h-1.26Z"/>
      <path class="uuid-ebf23e66-da9d-4e35-a418-06054f438025" d="M31.38,51.93l.58-1.74-1.45-1.05h1.8l.57-1.7.54,1.7h1.82l-1.48,1.07.54,1.68-1.43-1.04-1.49,1.08ZM31.22,49.37l1.02.74-.41,1.23,1.05-.76,1,.73-.38-1.18,1.04-.75h-1.28l-.38-1.2-.4,1.2h-1.26Z"/>
      <path class="uuid-ebf23e66-da9d-4e35-a418-06054f438025" d="M25.19,53.65l.58-1.74-1.45-1.05h1.8l.57-1.7.54,1.7h1.82l-1.48,1.07.54,1.68-1.43-1.04-1.49,1.08ZM25.02,51.09l1.02.74-.41,1.23,1.05-.76,1,.73-.38-1.18,1.04-.75h-1.28l-.38-1.2-.4,1.2h-1.26Z"/>
    </g>
    <g>
      <polygon class="uuid-64cceeac-b5b7-4646-95ae-393960b8fcbc" points="14.25 39.87 15.52 40.79 15.02 39.31 16.25 38.42 14.72 38.42 14.24 36.97 13.78 38.42 12.22 38.42 13.48 39.33 13.03 40.76 14.25 39.87"/>
      <polygon class="uuid-64cceeac-b5b7-4646-95ae-393960b8fcbc" points="15.9 30.65 15.44 32.1 13.89 32.1 15.15 33.01 14.69 34.45 15.91 33.56 17.18 34.48 16.68 33 17.92 32.1 16.39 32.1 15.9 30.65"/>
      <polygon class="uuid-64cceeac-b5b7-4646-95ae-393960b8fcbc" points="20.49 26.12 20.03 27.57 18.48 27.57 19.74 28.48 19.28 29.91 20.5 29.03 21.77 29.95 21.28 28.47 22.51 27.57 20.98 27.57 20.49 26.12"/>
      <polygon class="uuid-64cceeac-b5b7-4646-95ae-393960b8fcbc" points="41.15 38.42 39.6 38.42 39.14 36.97 38.65 38.42 37.12 38.42 38.35 39.31 37.86 40.79 39.13 39.87 40.35 40.76 39.89 39.33 41.15 38.42"/>
      <polygon class="uuid-64cceeac-b5b7-4646-95ae-393960b8fcbc" points="36.2 34.48 37.47 33.56 38.68 34.45 38.23 33.01 39.49 32.1 37.94 32.1 37.47 30.65 36.99 32.1 35.46 32.1 36.69 33 36.2 34.48"/>
      <polygon class="uuid-64cceeac-b5b7-4646-95ae-393960b8fcbc" points="32.88 26.12 32.4 27.57 30.87 27.57 32.1 28.47 31.6 29.95 32.88 29.03 34.09 29.91 33.64 28.48 34.9 27.57 33.34 27.57 32.88 26.12"/>
      <polygon class="uuid-64cceeac-b5b7-4646-95ae-393960b8fcbc" points="26.69 24.41 26.2 25.86 24.67 25.86 25.9 26.75 25.41 28.23 26.68 27.32 27.9 28.2 27.44 26.77 28.7 25.86 27.15 25.86 26.69 24.41"/>
      <polygon class="uuid-64cceeac-b5b7-4646-95ae-393960b8fcbc" points="16.39 44.72 15.9 43.27 15.44 44.72 13.89 44.72 15.15 45.63 14.69 47.06 15.91 46.18 17.18 47.1 16.68 45.61 17.92 44.72 16.39 44.72"/>
      <polygon class="uuid-64cceeac-b5b7-4646-95ae-393960b8fcbc" points="20.98 49.25 20.49 47.8 20.03 49.25 18.48 49.25 19.74 50.16 19.28 51.59 20.5 50.71 21.77 51.63 21.28 50.15 22.51 49.25 20.98 49.25"/>
      <polygon class="uuid-64cceeac-b5b7-4646-95ae-393960b8fcbc" points="37.94 44.72 37.47 43.27 36.99 44.72 35.46 44.72 36.69 45.61 36.2 47.1 37.47 46.18 38.68 47.06 38.23 45.63 39.49 44.72 37.94 44.72"/>
      <polygon class="uuid-64cceeac-b5b7-4646-95ae-393960b8fcbc" points="33.34 49.25 32.88 47.8 32.4 49.25 30.87 49.25 32.1 50.15 31.6 51.63 32.88 50.71 34.09 51.59 33.64 50.16 34.9 49.25 33.34 49.25"/>
      <polygon class="uuid-64cceeac-b5b7-4646-95ae-393960b8fcbc" points="27.15 50.98 26.69 49.53 26.2 50.98 24.67 50.98 25.9 51.87 25.41 53.35 26.68 52.44 27.9 53.32 27.44 51.89 28.7 50.98 27.15 50.98"/>
    </g>
    <g>
      <rect class="uuid-005a3d04-3e49-459b-a262-39de37e8305d" x="64.09" y="24.61" width="433.57" height="83.37"/>
      <path class="uuid-e5807259-43c6-4e3a-b56f-5578f2013494" d="M78.12,30.61l7.04,40.08,8.8-38.64h13.12l8.72,38.56,7.04-40h12.88l-12.16,55.2h-14.64l-8.64-37.92-8.72,37.92h-14.64l-11.76-55.2h12.96Z"/>
      <path class="uuid-e5807259-43c6-4e3a-b56f-5578f2013494" d="M155.32,30.61v20.88h4.88l12.88-20.88h14.8l-16.48,26.72,17.84,28.48h-15.44l-13.68-22.16h-4.8v22.16h-12.96V30.61h12.96Z"/>
      <path class="uuid-e5807259-43c6-4e3a-b56f-5578f2013494" d="M211.56,30.61l17.6,37.68-.4-37.68h12.4v55.2h-16.4l-17.6-37.68.4,37.68h-12.4V30.61h16.4Z"/>
      <path class="uuid-e5807259-43c6-4e3a-b56f-5578f2013494" d="M274.2,30.61c7.76,0,12.96,1.92,16.32,5.12,4.8,4.64,6.16,11.92,6.16,21.84s-1.2,17.92-6.8,23.12c-3.44,3.2-8.48,5.12-15.28,5.12h-22.08V30.61h21.68ZM265.56,74.53h7.92c3.36,0,5.76-.88,7.28-2.64,1.84-2.08,2.48-5.92,2.48-13.76s-.64-11.68-2.56-13.84c-1.44-1.6-3.6-2.4-7.12-2.4h-8v32.64Z"/>
      <path class="uuid-e5807259-43c6-4e3a-b56f-5578f2013494" d="M357.96,30.61v11.52h-14.16v43.68h-12.96v-43.68h-14.08v-11.52h41.2Z"/>
      <path class="uuid-e5807259-43c6-4e3a-b56f-5578f2013494" d="M387,30.61c5.12,0,9.6.8,12.96,2.96,3.6,2.32,6.08,6,6.08,12.8,0,7.6-3.04,13.36-10.4,15.28,6.96,1.28,9.04,8.08,10.72,24.16h-13.6c-2-14.88-3.12-18.72-8.08-18.72h-7.28v18.72h-12.96V30.61h22.56ZM377.4,56.21h5.84c6.16,0,9.36-1.36,9.36-8.32,0-2.64-.48-4.16-1.52-5.12-.96-.88-2.4-1.12-4.8-1.12h-8.88v14.56Z"/>
      <path class="uuid-e5807259-43c6-4e3a-b56f-5578f2013494" d="M422.28,30.61l10.96,40.64,10.8-40.64h13.6l-17.44,55.2h-14.48l-17.2-55.2h13.76Z"/>
      <path class="uuid-e5807259-43c6-4e3a-b56f-5578f2013494" d="M476.6,30.61v43.68h18.96v11.52h-31.92V30.61h12.96Z"/>
    </g>
  </g>
</svg>